<svg width="482" height="212" viewBox="0 0 482 212" fill="none" xmlns="http://www.w3.org/2000/svg">
<rect width="482" height="212" rx="50" fill="#FFE500"/>
<path d="M97.1188 150.795H69.7542V132.435H97.1188C98.756 132.435 100.159 131.148 100.159 129.394C100.159 127.757 98.756 126.354 97.1188 126.354H92.2072C80.396 126.354 70.8066 116.764 70.8066 104.953C70.8066 93.1417 80.396 83.4354 92.2072 83.4354H116.648V101.796H92.2072C90.4531 101.796 89.1667 103.199 89.1667 104.953C89.1667 106.59 90.4531 107.993 92.2072 107.993H97.1188C108.93 107.993 118.519 117.583 118.519 129.394C118.519 141.205 108.93 150.795 97.1188 150.795Z" fill="#080024"/>
<path d="M163.955 150.093L148.518 125.886L141.501 133.487V150.093H123.843V55.8369H141.501V109.748L163.604 84.9557H186.057L160.68 113.022L184.653 150.093H163.955Z" fill="#080024"/>
<path d="M225.839 84.2541H243.381V150.093H225.839L225.956 147.403C221.279 149.742 216.133 151.029 210.871 151.029C206.427 151.029 201.983 150.093 197.89 148.456C193.914 146.702 190.406 144.363 187.248 141.322C184.208 138.165 181.869 134.657 180.115 130.68C178.477 126.587 177.542 122.144 177.542 117.7C177.542 113.256 178.477 108.812 180.115 104.719C181.869 100.743 184.208 97.1178 187.248 94.0773C190.406 91.0368 193.914 88.6979 197.89 86.9437C201.983 85.1896 206.427 84.371 210.871 84.371C216.133 84.371 221.279 85.6574 225.956 87.9962L225.839 84.2541ZM218.823 131.265C221.279 129.979 223.15 127.991 224.553 125.652C225.956 123.196 226.658 120.506 226.658 117.7C226.658 115.361 226.19 113.139 225.138 111.034C223.968 108.344 221.98 106.005 219.407 104.485C216.952 102.731 213.911 101.912 210.871 101.912C202.217 101.912 195.083 109.046 195.083 117.7C195.083 126.354 202.217 133.487 210.871 133.487C213.677 133.487 216.484 132.668 218.823 131.265Z" fill="#080024"/>
<path d="M252.68 150.093V61.684L270.338 55.8369V150.093H252.68Z" fill="#080024"/>
<path d="M308.358 150.561C299.471 150.561 291.285 147.052 284.97 140.854C278.772 134.657 275.38 126.354 275.38 117.583C275.38 108.812 278.772 100.509 284.97 94.3112C291.285 88.1132 299.471 84.6049 308.358 84.6049C317.129 84.6049 325.432 88.1132 331.63 94.3112C337.828 100.509 341.219 108.812 341.219 117.583V126.12H294.793C297.599 130.564 302.628 133.604 308.358 133.604C312.802 133.604 316.895 131.85 319.936 128.575L332.332 140.27C329.291 143.427 325.666 146 321.573 147.754C317.363 149.625 312.919 150.561 308.358 150.561ZM294.793 109.163H321.924C319 104.602 313.971 101.562 308.358 101.562C302.628 101.562 297.599 104.602 294.793 109.163Z" fill="#080024"/>
<path d="M380.895 150.093L367.446 132.084L353.881 150.093H333.182L356.805 117.232L333.065 84.9557H354.583L367.33 103.082L380.31 84.9557H401.477L377.971 117.349L401.711 150.093H380.895Z" fill="#080024"/>
<path d="M380.318 81.5H408L394.5 100.5M340 134.5L326.5 153.5H353.873" stroke="#080024" stroke-width="4"/>
</svg>
